<?xml version="1.0" encoding="UTF-8"?>
<svg id="Layer_1" xmlns="http://www.w3.org/2000/svg" version="1.1" viewBox="0 0 1084.69 1062.33">
  <!-- Generator: Adobe Illustrator 30.5.1, SVG Export Plug-In . SVG Version: 2.1.4 Build 3)  -->
  <defs>
    <style>
      .st0 {
        fill: #040505;
      }

      .st1 {
        fill: #feffff;
      }

      .st2 {
        fill: #7ababd;
      }
    </style>
  </defs>
  <path class="st2" d="M608.44,981.09c10.71,3.27,16.14,8.72,31.07,10.35,13.03,1.42,23.69,19.18,41.4,19.44l25.69.38c9.53.14,19.37,16.55,28.44,15.6,6.85-.72,13.68-6.66,17.37-12.21,7.03-10.55-7.8-20.45-9-42.74-1.5-28.02-14.47-42.89-10.22-54.06l11.28-29.63c3.79-9.96,5.69-20.32,3.24-30.68-1.75-7.4,1.36-12.62,6.74-17.03l19.77-16.23c5.08-5.63,9.42-7.05,16.57-8.72,10.82-2.52,20.48-9.66,30.09-15.24l37.14-21.56c13.68-6.37,25.52-14.36,37.68-23.31l55.27-40.7c6.66-4.9,10.72-10.85,16.47-16.61,5.6-5.61,14.4-7.57,21.39-11.33,9.72-5.22,19.15-11.34,30.07-13.09,6.88-1.11,13.05-2.66,16.94-7.47,4.55-5.63,4.97-11.55,4.78-18.88l4.24-15.77c1.71-11.54,1.59-22.78,1.16-34.43-.68-18.23,11.19-30.13,13-50.8.9-10.27-2.46-19.95-4.32-29.84-4.38-23.27-19.4-28.67-20.51-39.08l-1.39-13.05-11.26-26.11-5.36-104.71c2.24.19,4.27-.32,6.86-.76,9.13-1.54,17.18,5.08,17.71,14.96l6.93,129.89c6.89,12.9,11.84,25.44,14.09,40.04.34,2.24,1.27,6.04,2.96,7.58,18.53,17.01,21.69,42.06,19.24,66.86l-7.36,26.4-3.33,48.46-4.83,23.1c-1.89,9.03-7.09,14.31-15.7,16.22-14.7,3.26-27.57,11.02-41.02,17.32-9.22,4.32-15.62,10.41-23.42,16.62l-39.14,31.2c-20.31,16.19-41.48,29.61-63.94,42.68l-40.07,23.31c-6.85,3.99-13.62,8.23-21.22,10.38-8.21,2.32-15.14,5.74-21.56,11.41l-24.35,21.49c-3.52,3.11-2.57,9.71-2,14.2,1.58,12.43-.85,23.21-5.36,34.6l-9.99,25.24c-2.01,5.08-2.04,9.36-.48,14.76,3.85,13.33,8.89,26.54,10.51,40.55,1.15,9.98,2.03,19,8.18,27.7,2.12,2.99,3.82,7.05,2.58,10.88-2,6.19-14.21,15.18-19.07,13.49-10.59-3.68-17.67-15.71-28.62-15.85l-25.68-.33c-12.08-1.33-21.86-8.33-31.18-15.47-6.48-4.96-29.4-5.24-49.85-18.25-10.69-6.8-15.35-19.16-18.6-31.13Z"/>
  <path class="st2" d="M448.3,646.34l-55.58-6.83c-9.18-1.26-17.38-6.11-27.15-5.64-8.81.43-18.3,5.43-23.85,12.08-5.67,6.79-1.1,18.87-18.22,39.44l-13.81,16.6c-4.05,4.87-10.24,6.19-16.11,3.8l-32.32-13.17-15.64-14.97-21.95-12.06c-6.59-3.62-19.47-20.17-22.24-28.52,7.72,3.36,16,5.35,20.79,13.69,3.06,5.33,8.1,9.38,14.01,11.66l27.07,10.43c5.92,2.28,13.11-1.04,17.18-5.87,9.58-11.36,19.25-22.3,26.76-35.21l3.06-17.17c8.14-13.08,25.87-17.72,39.78-12.47,6.08,4.06,12.13,5.77,19.3,3.92,8.62,3.72,17.52,4.64,26.85,2.94,6.77,2.38,13.65,4.03,20.68,3.91,9,3.26,12.68,11.37,18.48,18.2l12.92,15.23Z"/>
  <path class="st2" d="M579.16,207.65c-.18,1.62-2.49,4.66-4.5,4.15-11.46-7.89-21.85-18-20.6-32.39l11.62-133.39c8.82,1.22,17.81,4.47,22.46,12.91,7.63,13.84,1.62,53.81-.88,76.16l-8.1,72.55Z"/>
  <g>
    <path class="st0" d="M565.68,46.03l2.27,1.02-11.58,136.4c1.22,11.65,9.75,19.82,19.13,25.88l3.67-1.67c12.81,3.21,17.47-4.49,24.3-.69,7.42,4.13,12.24,11.74,13,20.82,7.21,5.1,15.71,5.52,24.43,6.35s16.45,7.78,25.21,9.88c5.4-2.1,10.78-7.35,17.77-6,5.61,1.09,11.91,3.86,15.96,9.61l9.27,18.95c5.13-6.93,11.88-10.73,19.95-9.49,10.32,1.59,18.78,6.81,25.67,14.18,1.9,2.03,6.33-.37,7.9.54l6.5,3.79c9.92-9.35,15.2-14.63,27.78-10.07,8.59,3.11,16.58,5.54,24.14,11.21,4.77,3.58,13.48,4.93,17.97,0,4.93-5.41,8.82-12.41,16.9-13.75l17.23,1.38c18.43-10.07,27.45,2.66,31.25,2.77,1.16.03,2.72-1.11,3.66-2.23,7.66-7.53,19.24-7.86,25.92.71l24.23,15.6c9.46,4.4,19.97,8.31,28.81,14.2,5.36-2.07,11.35-5.24,16.79-2.14,5.88,3.35,9.83,9.63,10.39,16.28l1.99,24.02,2.38.69,5.25,103.52,11.24,26,2.17,16.12c17.45,20.54,28.64,49.98,22.28,77.33-5.18,12.27-8.89,24.8-11.15,37.59.92,17.9.51,35.97-5.41,52.82,1.8,18.56-9.81,27.79-27.32,29.17-14.37,6.15-28.52,12.77-42.44,19.86-6.7,6.17-13.28,12.56-19.73,19.16l-68.57,50.2c-26.6,15.29-53.03,30.67-79.27,46.14-8.11,3.41-16.25,6.49-24.43,9.26-4.99,3.06-24.9,19.79-28.59,24.21-1.46,1.75-2.93,4.51-2.97,6.81,1.88,9.32,1.84,18.51-.1,27.55-5.15,14.25-10.1,28.44-14.84,42.57,2.33,11.05,5.28,22.07,8.86,33.05,1.92,16.6,3.71,31.52,11.71,46.23,5.85,15.64-14.25,32.97-29,24.65-5.64-4.95-11.61-9.15-17.89-12.59l-28.65-.69c-12.3-2.87-23.76-8.7-34.39-17.49-11.95-2.34-23.42-6.11-34.41-11.29l-2.48-3.32-4.48-2.26c-9.4-2.16-16.28-9.24-19.18-18.05l-9.3-28.29c-1.88-5.72-21.3-9.53-15.23-28.42.87-2.71,2.39-5.61,2.35-8.96-11.34-8.56-4.12-18.83-6.69-30.98-18.41-9.89-31.92-28.96-39.74-48.15-2.6-6.38-7.12-11.23-13.39-13.75-7.89-2.7-12.03-9.95-10.6-18.55l-20.31-41.94c-3.95-8.15-7.71-15.46-5.86-25.1-6.03-4.46-6.89-11.63-10.6-17.02l-16.69-14.93-5.48-2.84-18.56-22.79c-4.49-4.75-10.58-6.93-18.26-6.53-7.19-2.33-14.63-3.05-22.31-2.17-9.7-2.47-14.55-3.7-14.55-3.7-7.36,2.33-14.6-.54-20.9-4.36-13.02-4.31-28.11.11-35.85,11.58-1.1,10.92-2.72,17.57-9.24,26.92-5.83,8.36-18.39,26.01-26.65,30.83-4.44,2.59-8.32,3.11-13.29,2-6.61-1.48-31.47-11.67-36.14-15.42-3.87-3.96-7.45-8.19-10.74-12.68-5.6-2.89-10.57-6.26-14.9-10.12-8.49-3.7-15.99-10.09-21.77-17.73l-25.68-33.98c-3.04-4.02-3.98-8.8-3.78-13.68l.95-22.3c-1.28-11.72-8.06-20.9-12.86-30.56-2.77-4.73-5.2-9.69-7.28-14.86-4.64-3.78-9.28-7.54-13.91-11.29-7.69-2.56-14.26-8.74-18.9-15.81-12.7-19.34-28.38-24.09-32.87-42.32l-11.91-9.16c-8.18-3.83-14.44-9.52-16.01-19.04-2.17-13.11-15.07-10.5-23.46-20.97-4.93-6.16-5.67-13.2-2.37-19.64,3.14-6.1,9.88-9.69,17.66-8.94l117.2,11.24,138.1,12.76c6.66.62,12.47-3.64,13-10.24l16.76-209.31,14.08-174.31c1.32-16.35,15.11-25.91,30.39-25.24l187.43,8.26c21.28.94,30.67,19.06,29.05,37.74Z"/>
    <g>
      <path class="st2" d="M128.73,557.17c-1.47-.11-2.34-1.1-3.44-2.43l-14.82-18c-1.46-1.78-2.74-3.5-2.93-5.71,7.18,2.39,14.48,6.17,18.3,13.81l2.89,12.33Z"/>
      <path class="st1" d="M552.74,45.73l-51.91-2.83-123.65-5.14c-13.92-.58-25.23,13.49-26.26,26.49l-8.02,100.89-9.28,118.75c-.69,8.84-.98,16.76-.55,24.59.48,4.25.86,8.55.36,12.81-5.61,39.77-9.78,79.71-12.51,119.81-10.21,6.57-20.75,12.67-31.6,18.31l-2.64-1.22c-2.01-1.12-3.65-1.89-5.67-2.08l-76.9-7.44-164.8-14.52c-7.35-12.07-20.85-12.48-25.07-19.18-1.06-1.69-.9-4.44-.03-5.57,1-1.31,2.96-1.69,5.59-1.44l255.02,23.77c14.22,1.33,24.7-8.34,25.75-21.57l30.3-380.96c.66-8.26,6.25-17.1,15.09-16.76l187.06,7.36c7.44.29,13.09,3.25,16.78,7.84,4.52,5.63,3.48,11.87,2.96,18.08Z"/>
      <path class="st1" d="M171.48,637.42l-16.4-21.1c-1.99-2.56-1.5-6.59-1.43-9.77l.34-24.72c3.43,1.86,4.31,5.95,6.15,9.47,8.73,16.73,15.78,23.89,11.33,46.11Z"/>
      <path class="st0" d="M286.67,458.19l32.31-17.91c2.85-44.82,6.94-88.16,14.09-131.81l8.99-54.85,5.11-31.39c1.13-6.95,19.39-7.94,32.96.15,4.93,2.94,7.62,7.67,6.68,13.57l-3.43,21.45c-8.45,41.54-14.69,82.65-19.46,124.83l-4.29,37.93c34.8-16.64,69.18-30.84,106.3-41.77l7.51-67.47,9.95-75.73,11.88-72.48c2.34-14.28,4.75-27.85,8.68-41.62,3.55-12.42,19.37-11.11,31.33-4.7,13.36,7.16,5.6,23.2,2.55,37.4l-13.45,62.66c-7.06,32.89-10.31,65.4-13.98,98.8l-5.87,53.41c22.75-6.34,39.74,11.1,33.39,14.33-8.71,4.43-35.49.89-36.26,11.48l-9.06,125.3c-2.91,40.2-1,79.25-.2,119.41l.64,31.72c.04,2.2-.77,4.31-2.04,5.37-4.09,3.42-20.5-.21-30.13-4.49-3.67-1.63-5.9-4.75-6.05-9.02l-.79-21.47.63-101.59,2.5-44.74,6.59-94.64c-37.67,11.9-71.73,26.36-105.56,44.57l-3.4,58.43.26,97.3c.01,4.8-2.45,9.86-6.53,12.28-5.21,3.08-13.12,3.83-18.41.97-10.4-5.61-13.32-16.29-13.37-27.44-.19-40.1-1.38-79.26.91-119.63-13.73,7.06-24.96,15.6-37.37,23.9-2.18,1.46-5.55,3.52-8.14,1.64-4.02-2.9-7.39-7.7-8.71-12.63-1.06-3.99,1.89-8.14,5.08-10.14l18.15-11.4Z"/>
      <g>
        <path class="st1" d="M1003.22,328.77l-24.27-10.85c-7-3.18-13.21-6.44-18.91-11.7-16.18-14.94-24.9,9.09-35.56-.66-5.21-4.76-10.97-4.14-17.74-3.56l-19.25,1.65c-13.52,1.16-15.76,13.52-20.42,15.06-11.61,3.85-29.88-10-50.29-13.15-9.91-1.53-24.52,16.28-36.2,7.86l-7.85-10.94c-6.37-3.32-14.07-5.01-21.25-5.65-4.33-.38-8.47,6.72-13.42,6.47-1.44-.07-3.02-1.55-4.03-3.16l-9.95-15.86c-1.64-2.61-4.68-3.78-7.01-5.18l5.2-7.83c3.26-4.96,14.95.68,22.85,8.39,3.05,2.98,6.64,5.03,11.11,4.91,5.26-.15,6.29,7.38,12.13,7.24,7-.16,10.31-10.42,19.32-15.34,11.18,1.6,19.97,6.44,29.27,12.43,8.83,5.69,21.92,4.87,30.16-1.67l10.27-11c2.06-2.21,12.65,3.93,23.91-1.76,4.54-2.29,8.56-.92,12.22,2.07,7.57,6.18,18.14,5.56,23.84-2.43.89-1.25,3.33-2.52,4.75-1.57l15.53,10.48,14.61,9.82c10.78,3.97,20.68,8.04,30.02,14.68,7.35,5.22,13.42-2.91,16.93-1.31,2.82,1.29,3.6,14.08,4.02,22.56Z"/>
        <path class="st1" d="M704.72,278.87c-2.98,1.67-6.63,4.58-10.02,3.14l-13.2-5.61-35.21-6.93c-1.49-.29-3.08-.8-3.7-1.61-1.88-2.41.62-19.24-13.32-18.86-4.93.14-11.16-1.23-15.75.28-6.62,2.18-11.97,2.44-17.67-2.42-6.88-5.86-12.19-14.05-14.75-22.77,2.36-1.48,4.35-3.74,8.25-2.03,3.61,1.58,7.7.81,10.36-2.48,3.82,4.34,3.64,8.61,4.82,13.01,2.86,10.68,22.84,12.32,35.21,14.2s23.19,17.42,36.6,6.51c1.73-1.41,4.11-2.89,6.39-2.72,4.82.37,9.14,7.62,11.24,14.53,1.83,6.04,5.24,11.16,10.77,13.75Z"/>
        <g>
          <path class="st2" d="M552.74,45.73l-11.09,133.7c-1,12.1,2.73,23.19,11.42,30.81l13.12,11.5c4.04,3.54,10.44,5.15,14.9,2.36l2.98,1.58c5.49,13.38,15.24,28.07,31.13,20.81,15.96-.56,29.16-.02,29.25,20.07l37.71,7.61,13.86,5.84c3.12-1.15,6.02-1.53,8.69-1.14,3.72,1.74,8.48,1.24,12.35.23,1.87-1.87,4.29-1.25,7.26,1.86l12.03,18.44c2.2,2.44,5.79,1.19,10.76-3.73,14.08-2.86,28.74,2.71,35.06,16.09,3.17,2.04,6.79,1.93,10.27.74,7.58-4.22,15.37-7.34,23.36-9.35,14.84,3.84,29.46,8.4,43.87,13.67,5.7,1.13,10.13-1.61,13.29-8.22,2.08-2.31,4.57-4.35,7.48-5.58,6.17-2.6,21.23-3.31,28.33-3.54,9.99-.32,12.89,1.15,21.34,6.16,14.81-7.05,23.94-10.74,36.44,2.84,11.47,6.49,23.27,12.21,35.4,17.17l1.26,3.13,5.26,107.57c.69,14.1,12.77,24.47,12.55,41.32-.18,13.4,16.44,24.52,18.42,33.15l6.85,29.78c1.94,8.44-2.2,17.56-5.83,25.35-12.85,27.65-3.27,46.75-9.07,67.06-1.74,6.11-4.91,11.44-3.83,18.1,1.82,11.23-10.95,7.18-30.44,17.08l-21.01,10.67c-11.02,4.02-20.08,10.53-26.45,20.4l-39.54,29.72-43.91,31.02-44.76,24.62c-10.25,5.64-19.67,14.76-31.26,17.5-10.68,2.53-17.88,6.75-26.38,14.1l-21.93,18.97c-14.04,15.78-.69,27.23-9.37,49.22l-11.89,30.1c-2.91,7.36-1.88,14.67,1.05,21.98,5.14,12.8,8.51,25.86,9.52,39.68.83,11.39,4.69,21.27,9.75,31.38-1.02,2.14-4.79,5.7-6.98,4.88l-19.24-12.74c-13.85-5.62-35.54,3.77-50.95-10.12-7.96-7.18-17.07-11.16-28-11.84-5.65-.35-10.75-4.13-15.89-6.38l-17.9-7.84c-13.66-15.5-8.49-37.27-23.3-47.31l-2.57-3.8-.07-15.24c-.34-.82-.51-1.73-.55-2.6.55-.52.46-1.24-.26-2.18,1.13-3.34-4.74-7.33-5.61-10.21l-.79-20.32c-1.62-7.44-7.14-9.61-12.69-13.41-13.13-8.99-22.03-23.09-27.82-37.68-4.05-10.19-11.55-17.27-21.08-21.06-.43-1.48-1.14-2.74-2.13-3.78.4-8.71-17.45-41.77-25.2-55.81-3.68-6.65,3.74-14.5-7.28-25.66l-5.69-11.76-15.1-14.19c-7.36-6.92-14.22-13.13-19.21-22.01-3.05-5.43-8.75-9.53-13.05-13.53-5.67-5.28-12.01-4.08-18.61-5.33-8.21-1.55-15.17-3.5-23.89-2.44-5.14.63-10.79-3.08-15.77-3.3l-10.07-.44c-6.56-2.54-12.43-5.95-19.78-6.04-10.43-.13-20.46,2.83-29.27,7.96-19.52,11.37-14.47,29.62-16.75,32.58l-22.41,29.08c-3.04,3.94-7.05,3.69-11.45,1.93l-19.99-7.97c-4.33-1.73-7.2-4.36-9.67-8.2-11.07-17.21-28.22-14.82-36.61-25.58l-13.86-17.79-1.4-4.16c1.13-15.02-3.14-29.19-12.81-42.51l-3.28-8.91c-2.86-10.72-8.33-20.37-13.23-30.88l-4.12-13.52c-6.15-9.6-15.39-15.74-26.08-19.57-10.27-3.68-13.51-18.62-31.66-32.85-5.93-4.65-9.66-10.37-11.91-17.51-3.26-10.34-11.75-17.09-22.52-18.14-4.59-4.08-5.05-10.1-5.16-15.23l1.02-2.26c80.39,6.82,160.42,14.09,240.11,21.82,4.63.04,6.7,1.54,6.23,4.49l.13,2.69-17.3,10.87c-8.97,4.38.9,22.5,8.35,17.74,11.22-7.98,22.76-15.5,34.62-22.57,5.97-2.05,8.32-1.86,7.18,5.17-1.18,38.43-1.36,76.86-.55,115.28-2.94,21.61,25.81,38.64,33.57,14.36-1.65-53.03-.35-105.77,3.92-158.2,29.53-16.22,61.31-31.05,93.51-41.2,8.39-4.26,13.7-4.51,15.92-.76-6.64,88.01-12.91,176.43-8.12,264.37,3.44,6.14,26.15,11.28,31.34,8.75.64-.31.99-1.12,1.2-1.77-.73-42.71-1.18-86.08-1.36-130.11,3.03-49.76,6.45-99.31,10.27-148.64,1.12-7.14,8.85-8.8,14.85-9.72,7.82-.46,15.43-1.65,22.83-3.55-4.61-8.96-16.63-11.94-26.19-11.03-4.74,1.57-7.58.74-8.51-2.5,4.67-48.56,10.95-97.58,18.86-147.06,5.78-28.24,11.98-56.29,18.61-84.16,8.05-18.98-26.92-31.05-33.6-14.35-18.52,85.06-28.39,169.96-37.79,255.5l-1.15,2.67c-34.91,11.33-69.24,24.31-102.31,40.29-3.82,2.58-5.52,1.85-7.56-1.12,5.96-60.45,16.42-123.94,27.18-184.17.87-14.09-25.34-19.83-34.84-13.06l-14.12,85.59-2.54.99-2.49-3.56c5.1-82.01,11.34-163.77,18.71-245.29,3.63-13.8,12.69-22.73,27.01-24.23,58.63,2.13,117.03,4.76,175.19,7.91l1.26,2.42Z"/>
          <g>
            <path class="st1" d="M578.71,916.18c-2.09-1.42-6.82-2.6-5.73-7.09.98-4.03,3.02-8.05,3.09-11.95,2.47,5.86,2.15,12.55,2.64,19.04Z"/>
            <path class="st1" d="M507.28,789.69c-1.44-.57-2.2-2.32-2.13-3.78.98-.39,1.99.14,2.16.78.28,1.1.14,2.26-.02,3Z"/>
            <path class="st1" d="M575.52,894.54l-.26-2.18c.04.2,1.01.96,1.16,1.2.34.54,0,1.19-.9.98Z"/>
            <g>
              <path class="st0" d="M764.99,549.81l-22.59.22-11.03-19.73-16.81-29.3c-2.58,2.19-5.7,5.25-5.78,9.26-.27,13.95.4,27.25-1.87,41.27-6.72,1.32-13.41.98-20.82.03l-.17-116.83c7.35-2.19,14.28-2.31,21.43-1.18l1.15,38.65c10.14-12.31,18.39-25.19,26.86-39.06,7.9-1.13,15.64-1.09,24.04.65l-21.01,34.26-8.78,13.35,35.36,62.16c.85,1.5,1.98,6.24.02,6.26Z"/>
              <path class="st0" d="M807.53,496.95c-1.29,9.95-1.11,19.27-.15,28.61.28,2.75,4.15,2.64,5.98,2.58l30.45-.93c5.23-.16,5.24,11.85,3.86,21.87-5.78,2.49-11.74.96-17.71,1.17l-38.84,1.38c-4.3.15-11.62.02-11.45-6.21l1.76-67.77.96-44.58,63.14.32c2.45,7.76,2.31,14.99,1.73,23.37l-39.17,2.17c-2.06,5.54-1.67,11.02-.73,16.48l24.93-.25c6.85-.07,6.15,9.32,4.28,19.66l-29.03,2.14Z"/>
              <path class="st0" d="M654.43,525.38c1.52-1.54,3.29-2.47,4.77-2.29,2.25.26,11.37,6.86,13.49,11.92-7.13,13.18-21.43,18.85-36.41,17.31-17.99-1.85-31.22-15.07-36.47-32.63-6.01-20.1-3.6-41.73,4.88-60.89,3.46-7.82,8.69-12.74,15.08-17.91,14.52-11.76,34.74-10.58,46.9,4.1,1.54,1.86,3.14,3.5,2.98,6.09s-2.03,3.87-4.8,5.9-6.46,7.66-10.89,6.25c-3.15-2.34-5.72-7.32-9.28-7.8-5.2-.71-9.72-.43-13.72,2.56-14.89,11.14-18.6,60.97,5.41,70.87,6.99,1.9,12.32.34,18.06-3.46Z"/>
              <path class="st0" d="M970.65,549.57c-7.12,2.37-14.05,2.09-20.76.35l.1-94.38-20.56-.49c-1.04-6.89.07-13.37.72-20.98l61.14.18c1.41,6.82.96,13.04.09,19.87l-19.38,1.66-1.34,93.8Z"/>
              <path class="st0" d="M899.78,549.88c-7.45,1.96-13.86,1.51-20.68.32l-.3-51.6.4-43.05-20.27-.24c-1.45-6.76-.85-13.71.8-21.34l60.6.2c1.72,6.71,1.43,13.49.43,20.29l-19.75,1.04-1.23,94.39Z"/>
              <g>
                <path class="st0" d="M565.82,436.88c27.98,17.21,27.65,94.07-7.43,111.5-9.96,4.95-22.74,3.49-32.5-2.39-21.52-12.96-22.38-48.54-18.52-73.23,1.68-10.78,4.72-21.04,12.27-28.67,12.34-12.47,30.9-16.61,46.18-7.21Z"/>
                <path class="st2" d="M554.77,523.11c-3,4.68-9.46,4.49-14.22,2.98-20.37-6.47-16.32-69.2,4.95-69.61,18.02-.35,22.19,46.45,9.27,66.63Z"/>
              </g>
            </g>
            <g>
              <path class="st0" d="M804.72,617.72c.06,2.46-3,2.73-4.57,2.16s-2.24-1.56-3.27-3.83l-12.01-26.48-.59,28.74c-.05,2.28-6.21,2.48-6.2-.02l.29-47c0-1.53,5.77-1.9,6.38-.49l12.28,28.31.69-27.64c.04-1.64,4.35-2.05,5.9-.56l1.1,46.81Z"/>
              <path class="st0" d="M823.04,600.31c-1.77.07-2.13-5.11-.42-5.77,3.22-1.25,6.82-.43,10.74-.39l-.45,26.4-7.29-.64c-2.69-.24-6.46,1.34-9.11-.29-1.98-1.21-4.62-3.73-5.36-7.22-3.2-14.98-1.75-39.66,9.32-42.08,4-.88,7.58-.39,10.13,1.99,4.31,4.04,3.22,13.14,1.97,13.66-.95.4-2.95.25-3.81-.13-2.3-1.01.3-7.92-4.12-9.03-8.3-2.08-10.92,17.18-8.24,31.24.72,3.78,4.13,5.81,6.66,5.1,6.08-1.69,4.99-10.97,4.42-11.83-.44-.66-1.68-1.13-4.42-1.02Z"/>
              <path class="st0" d="M649.23,575.44c.1-2.19.25-3.59.84-4.21.87-.91,4.53-.6,4.5,1l-.78,37.56c-.13,6.09-4.1,10.78-9.72,10.8s-11.22-3.98-11.24-10.52l-.17-37.93c0-1.71,5.35-2.03,5.47-.61l-.07,24.38c-.03,8.89.86,17.54,5.86,17.26,1.58-.09,3.75-1.49,3.84-3.61l1.49-34.1Z"/>
              <path class="st0" d="M882.89,595.17c-2.66.71-6.19-.47-9.07,1.37l.25,15.97,12,1.2c1.59.16,1.46,5.78-.08,6.5l-19.16.02.53-49.47,17.91-.68c1.54.89,1.38,4.85.38,6.78l-11.35.49c-.78,3.72-.82,7.36-.31,10.9l9.08.39c1.36.71,1.12,5.58-.18,6.53Z"/>
              <path class="st0" d="M910.05,618.06c-2.96,3.49-8.83,3.5-12.35,1.49-2.58-1.46-6.62-4.55-6.06-8.5.23-1.6,1.73-2.8,2.52-3.16,3.41-1.6,3.91,6.32,9.05,5.83,2.17-.21,4.24-2.18,4.35-4.94.49-12.58-19.78-11.42-14.51-29.79,1.18-4.12,4.58-7.77,8.15-8.54,4.76-1.03,9.83,1.17,11.69,5.59.54,1.29-.69,2.88-1.35,3.5-2.45,2.28-5.94-3.88-10.32-1.04-1.78,1.15-3.15,4.07-2.45,6.98.83,3.47,4.05,5.52,6.94,7.41,8.49,5.55,11.43,16.85,4.36,25.17Z"/>
              <path class="st0" d="M937.75,617.56c-4.72,5.99-12.71,3.79-16.76-1.16-1.54-1.89-2.26-3.71-1.89-5.45.29-1.39,2.66-4.15,4.42-2.95,1.34,3.34,6.5,8.2,9.78,4.46,4.25-4.83-.5-12.06-5.31-14.78-7.5-4.24-10.1-11.17-7.53-19.21,1.38-4.33,4.73-7.6,8.8-8.18s8.94,1.54,10.71,5.73c.54,1.27-.48,2.53-1.01,3.02-2.48,2.33-5.75-2.54-9.79-1.04-1.55.58-3.11,2.41-3.35,5.11-.34,3.88,2.06,6.97,5.63,8.76,9.37,4.7,13.3,16.78,6.29,25.67Z"/>
              <path class="st0" d="M688.02,618.91c-3.22,2.77-8.24,2.35-11.83.3-2.41-1.37-5.98-4.52-5.2-8.37.3-1.46,1.73-2.48,2.48-2.76,2.43-.88,2.94,4.6,7.04,5.49,1.96.43,4.53.02,5.44-2.16,2.1-5.03-.84-11.16-5.72-13.48-8.03-3.81-10.64-11.68-7.62-20.05,1.25-3.47,4.35-6.47,7.08-7.31,6.15-1.89,14.15,3.8,11.99,7.47-2.59,4.41-6.49-1.95-11,.14-1.16.54-2.34,2.04-2.76,4.07-2.07,9.91,12.34,9.98,14.53,20.52,1.33,6.36.61,11.79-4.44,16.13Z"/>
              <path class="st0" d="M557.51,590.61c1.44.07,1.36,5.52-.3,5.66l-9.78.79-.38,22.09c-1.05,1.24-4.35,1.25-6.21.5l.32-49.23,17.89.03c1.54.27,1.21,5.7-.61,5.84l-11.07.87-.04,12.97,10.18.49Z"/>
              <path class="st0" d="M733.31,577.31c-8.41,1.29-12.68,31.17-1.62,36.53,5.05,2.45,7.07-4.26,9.56-3.48,2.22.7,2.58,3.13,1.45,4.98-2.52,4.16-6.04,5.61-10.62,5.22-11.6-.98-13.37-15.6-12.19-29.36.95-11.08,5.17-20.89,14.4-20.98,3.7-.03,9.17,5.37,8.15,8.11-.58,1.55-2.62,3.09-4.22,1.48s-3.07-2.8-4.92-2.52Z"/>
              <circle class="st0" cx="701.25" cy="616.33" r="3.62"/>
              <circle class="st0" cx="662.73" cy="616.35" r="3.59"/>
              <g>
                <path class="st0" d="M609.36,617.68l-4.77-11.16c-.55-1.29-2.86-1.78-5.12-1.13l-.92,14.8c-.09,1.5-5.46.85-5.45-.74l.37-48.82c5.42-.38,11.32-1.19,16.24.63,8.47,3.14,9.72,22.54,1.13,32.69l5.45,14.16c.6,1.57-1.88,2.22-2.77,2.15-1.47-.11-3.22-.37-4.17-2.59Z"/>
                <path class="st2" d="M607.1,577.69c4.69,3.45,4.42,14.61,1.16,18.83-1.97,2.55-5.57,3.33-8.91,2.68l.08-21.94c1.68-1.85,6-.79,7.67.43Z"/>
              </g>
              <g>
                <path class="st0" d="M586.67,577.8c5.26,17,2.27,43.39-12.6,42.2-4.49-.36-7.89-3.88-9.15-8.82-4.4-17.2-1.77-42.14,12.19-41.06,3.97.31,8.1,2.94,9.56,7.68Z"/>
                <path class="st2" d="M576.02,577.99c9.8.46,8.38,35.14-1.08,34.26-8.57-.79-7.82-34.69,1.08-34.26Z"/>
              </g>
              <g>
                <path class="st0" d="M771.34,578.43c4.68,15.62,2.33,40.83-11.32,41.57-4.89.27-8.92-2.98-10.58-8.24-5.07-16.07-2.07-41.17,10.77-41.68,4.66-.19,9.57,3.14,11.13,8.35Z"/>
                <path class="st2" d="M760.16,577.87c9.74.06,8.28,33.99-.04,34.36-2.03.09-4.35-1.34-4.98-3.83-3.15-12.46-1.99-30.58,5.02-30.53Z"/>
              </g>
              <g>
                <path class="st0" d="M855.85,619.6c-3.84-4.3-4.1-12.55-7.86-14.29-.9-.42-3.14-.15-3.2,1.03l-.66,13.27c-.05,1.06-3.45,1.53-5.61.75l.03-49.69c5.49-.34,11.37-1.24,16.27.59,8.58,3.22,9.86,22.95,1.68,31.78,1.16,7.29,6.45,13.35,4.57,16.37-.63,1.01-3.73,1.85-5.22.18Z"/>
                <path class="st2" d="M852.9,578.23c3.7,3.21,4.16,14.01.59,18.36-1.78,2.17-4.61,3.38-8.73,2.63l-.26-22.52c3.28-.78,6.38-.23,8.4,1.52Z"/>
              </g>
            </g>
          </g>
        </g>
      </g>
    </g>
  </g>
</svg>